# xmcd
#
# Track frame offsets:
#	150
#	18010
#	41767
#	60960
#	80750
#	96902
#	110727
#	128790
#	142722
#	159377
#
# Disc length: 2323 seconds
#
# Revision: 0
# Processed by: cddbd v1.5.2PL0 Copyright (c) Steve Scherf et al.
# Submitted via: audiograbber 1.83.01
#
DISCID=7709110a
DTITLE=Tammy Wynette - Without Walls
DYEAR=1994
DGENRE=Country
TTITLE0=If It's The Last Thing I Do
TTITLE1=A Woman's Needs (Duet with Elton John)
TTITLE2=Every Breath You Take (Duet with Sting)
TTITLE3=If You Were To Wake Up (Duet with Lyle Lovett)
TTITLE4=Glass Houses (Duet with Joe Diffie)
TTITLE5=Girl Thang (Duet with Wynonna)
TTITLE6=This Love (Duet with Cliff Richard)
TTITLE7=I Second That Emotion (Duet with Smokey Robinson)
TTITLE8=All I Am To You (Duet with Aaron Neville)
TTITLE9=What Do They Know
EXTD=
EXTT0=
EXTT1=
EXTT2=
EXTT3=
EXTT4=
EXTT5=
EXTT6=
EXTT7=
EXTT8=
EXTT9=
PLAYORDER=
